<svg xmlns="http://www.w3.org/2000/svg" width="960" height="520" viewBox="0 0 960 520">
<style>
text { font-family: -apple-system, BlinkMacSystemFont, "Segoe UI", sans-serif; fill: #111827; }
.axis { stroke: #374151; stroke-width: 1; }
.grid { stroke: #e5e7eb; stroke-width: 1; }
.label { font-size: 12px; }
.title { font-size: 20px; font-weight: 700; }
.legend { font-size: 12px; }
</style>
<text class="title" x="480.0" y="30" text-anchor="middle">Average Completion Time by Condition and Mode</text>
<line class="grid" x1="80" y1="430.0" x2="930" y2="430.0"/>
<text class="label" x="70" y="434.0" text-anchor="end">0.0</text>
<line class="grid" x1="80" y1="356.0" x2="930" y2="356.0"/>
<text class="label" x="70" y="360.0" text-anchor="end">9.9</text>
<line class="grid" x1="80" y1="282.0" x2="930" y2="282.0"/>
<text class="label" x="70" y="286.0" text-anchor="end">19.9</text>
<line class="grid" x1="80" y1="208.0" x2="930" y2="208.0"/>
<text class="label" x="70" y="212.0" text-anchor="end">29.8</text>
<line class="grid" x1="80" y1="134.0" x2="930" y2="134.0"/>
<text class="label" x="70" y="138.0" text-anchor="end">39.7</text>
<line class="grid" x1="80" y1="60.0" x2="930" y2="60.0"/>
<text class="label" x="70" y="64.0" text-anchor="end">49.7</text>
<line class="axis" x1="80" y1="60" x2="80" y2="430"/>
<line class="axis" x1="80" y1="430" x2="930" y2="430"/>
<text class="label" x="20" y="245.0" transform="rotate(-90, 20, 245.0)" text-anchor="middle">Average Time (s)</text>
<rect x="106.6" y="291.7" width="42.5" height="138.3" fill="#16a34a"/>
<text class="label" x="127.8" y="285.7" text-anchor="middle">18.6</text>
<rect x="159.7" y="292.6" width="42.5" height="137.4" fill="#dc2626"/>
<text class="label" x="180.9" y="286.6" text-anchor="middle">18.4</text>
<rect x="212.8" y="293.4" width="42.5" height="136.6" fill="#2563eb"/>
<text class="label" x="234.1" y="287.4" text-anchor="middle">18.3</text>
<text class="label" x="186.2" y="475" text-anchor="middle">Baseline</text>
<rect x="319.1" y="268.5" width="42.5" height="161.5" fill="#16a34a"/>
<text class="label" x="340.3" y="262.5" text-anchor="middle">21.7</text>
<rect x="372.2" y="108.3" width="42.5" height="321.7" fill="#dc2626"/>
<text class="label" x="393.4" y="102.3" text-anchor="middle">43.2</text>
<rect x="425.3" y="129.6" width="42.5" height="300.4" fill="#2563eb"/>
<text class="label" x="446.6" y="123.6" text-anchor="middle">40.3</text>
<text class="label" x="398.8" y="475" text-anchor="middle">Toronto Degraded</text>
<rect x="531.6" y="261.8" width="42.5" height="168.2" fill="#16a34a"/>
<text class="label" x="552.8" y="255.8" text-anchor="middle">22.6</text>
<rect x="584.7" y="148.7" width="42.5" height="281.3" fill="#dc2626"/>
<text class="label" x="605.9" y="142.7" text-anchor="middle">37.8</text>
<rect x="637.8" y="164.6" width="42.5" height="265.4" fill="#2563eb"/>
<text class="label" x="659.1" y="158.6" text-anchor="middle">35.6</text>
<text class="label" x="611.2" y="475" text-anchor="middle">Oregon Degraded</text>
<rect x="744.1" y="269.0" width="42.5" height="161.0" fill="#16a34a"/>
<text class="label" x="765.3" y="263.0" text-anchor="middle">21.6</text>
<rect x="797.2" y="161.1" width="42.5" height="268.9" fill="#dc2626"/>
<text class="label" x="818.4" y="155.1" text-anchor="middle">36.1</text>
<rect x="850.3" y="172.9" width="42.5" height="257.1" fill="#2563eb"/>
<text class="label" x="871.6" y="166.9" text-anchor="middle">34.5</text>
<text class="label" x="823.8" y="475" text-anchor="middle">N. California Degraded</text>
<rect x="80" y="488" width="14" height="14" fill="#16a34a"/>
<text class="legend" x="102" y="500">Adaptive</text>
<rect x="260" y="488" width="14" height="14" fill="#dc2626"/>
<text class="legend" x="282" y="500">Random</text>
<rect x="440" y="488" width="14" height="14" fill="#2563eb"/>
<text class="legend" x="462" y="500">Round Robin</text>
</svg>